<svg width="400" height="295" viewBox="0 0 400 295" fill="none" xmlns="http://www.w3.org/2000/svg">
<g clip-path="url(#clip0_1_2)">
<g clip-path="url(#clip1_1_2)">
<path fill-rule="evenodd" clip-rule="evenodd" d="M215.124 204.219C219.172 205.276 222.691 205.897 227.28 205.888C229.463 205.884 231.673 205.749 233.715 205.336C235.623 204.949 237.472 204.373 239.461 204.03C239.617 204.253 239.952 205.261 240.076 205.586C240.264 206.097 240.457 206.654 240.64 207.154C236.421 208.326 231.981 209.291 227.176 209.293C224.278 209.295 215.359 208.465 213.62 207.154C214.095 206.099 214.579 205.205 215.124 204.219ZM213.079 198.68C213.337 197.916 214.019 196.982 214.486 196.285C215.91 194.166 217.62 191.576 219.075 189.603C220.181 188.104 221.144 186.651 222.214 185.196C223.103 183.986 224.652 182.427 226.982 182.401C230.407 182.363 233.384 187.315 234.946 189.537C235.997 191.032 236.958 192.541 238.005 194.025C238.533 194.775 240.763 197.765 240.882 198.59C239.733 199.203 235.881 200.144 234.373 200.479C229.145 201.64 224.733 201.729 219.491 200.565C218.364 200.315 217.271 200.016 216.205 199.7C215.165 199.392 214.087 198.935 213.079 198.68ZM184.97 175.18L187.087 175.165C187.435 176.896 188.56 179.767 189.231 181.368C190.697 184.862 192.43 187.593 194.692 190.491C195.903 192.042 199.431 195.344 199.66 195.822C199.311 196.204 199.047 196.712 198.711 197.143C198.387 197.558 198.014 197.932 197.68 198.345L193.476 194.396C190.515 191.01 187.878 186.716 185.956 182.5C185.309 181.082 183.76 177.265 183.745 175.583L183.632 175.243L184.97 175.18ZM254.702 195.389C255.854 194.075 256.707 193.366 257.821 192.078C258.149 191.699 258.499 191.321 258.809 190.949C260.075 189.43 261.253 187.762 262.349 185.933C264.474 182.386 266.06 178.19 267.16 173.648L270.565 173.783C269.974 178.477 267.32 184.181 265.252 187.693C263.759 190.231 258.449 197.195 256.514 198.075C256.245 197.865 254.835 195.743 254.702 195.389ZM209.684 185.248C209.054 186.778 208.328 188.286 207.615 189.81C207.156 190.791 205.722 193.537 205.482 194.233C203.981 193.746 201.17 190.782 200.239 189.828C197.036 186.546 194.558 182.558 192.867 178.087C192.124 176.12 191.032 172.902 190.92 170.572C193.473 170.489 200.835 171.046 203.574 171.332C206.226 171.609 212.454 171.579 212.811 175.308C213.109 178.421 210.71 182.753 209.684 185.248ZM246.381 189.57C245.643 188.084 244.982 186.49 244.29 184.931C243.576 183.322 242.866 181.851 242.166 180.219C241.507 178.682 240.782 176.591 241.467 174.759C242.922 170.865 246.03 170.823 250.641 170.297C254.766 169.827 258.875 169.258 263.129 169.147C262.86 174.29 260.357 180.463 258.131 183.982C256.598 186.405 250.983 193.478 248.614 194.169L246.381 189.57ZM225.703 150.154C230.594 149.752 234.661 151.664 237.248 153.957C247.719 163.239 241.377 179.794 228.28 180.749C216.043 181.641 208.478 169.644 212.336 160.058C212.828 158.838 213.608 157.275 214.424 156.312C217.655 152.801 220.589 150.574 225.703 150.154ZM190.722 161.802C190.841 159.713 191.099 159.926 192.124 158.845L195.359 155.528C195.712 155.15 196.07 154.859 196.424 154.481C197.061 153.801 197.861 152.854 198.553 152.276C199.272 151.676 200.012 150.763 200.677 150.067L207.101 143.617C207.654 144.362 208.548 146.374 209.057 147.327C209.726 148.579 210.38 149.758 211.022 151C212.488 153.835 213.477 156.755 210.538 158.884C208.411 160.425 204.44 160.664 201.317 161.013C197.98 161.387 194.131 161.819 190.722 161.802ZM262.906 160.454C258.673 160.338 254.488 159.997 250.325 159.674C246.432 159.372 242.069 158.99 241.291 155.467C240.556 152.14 243.034 147.823 244.218 145.457L247.495 138.786C247.698 138.374 247.849 138.151 248.067 137.753L248.698 136.762C250.002 137.304 253.916 141.262 254.947 142.521C255.337 142.996 255.593 143.309 255.987 143.795C258.663 147.091 263.148 156.037 262.906 160.454ZM254.271 135.373C254.359 134.585 255.861 132.998 256.311 132.683C257.095 133.059 258.811 135.017 259.392 135.537C260.555 136.578 262.109 138.646 263.042 139.943C263.685 140.839 264.32 141.706 264.923 142.689C266.708 145.597 269.898 151.952 270.26 155.962L266.905 156.344C266.206 152.477 264.011 147.686 262.015 144.457C259.42 140.324 257.152 138.756 254.271 135.373ZM218.697 132.315C219.124 131.927 219.484 131.597 219.904 131.205C221.691 129.538 221.005 129.947 225.167 129.609C227.868 129.39 231.196 129.693 233.755 130.192C237.235 130.87 238.296 131.571 240.902 132.263C240.466 133.388 238.872 135.451 238.182 136.411C236.979 138.086 233.445 143.051 232.399 144.32C230.044 147.173 227.714 149.766 223.571 147.634C222.088 146.871 220.949 145.578 220.009 144.437C218.788 142.953 214.918 138.191 214.012 136.873L218.697 132.315ZM226.42 125.005C226.582 124.714 226.424 124.971 226.573 124.789L229.433 121.888C229.776 121.581 229.78 121.672 230.334 121.726C235.146 122.191 236.226 122.821 240.474 123.659C240.231 124.654 239.432 125.869 238.961 126.663C238.454 126.64 234.656 125.692 233.082 125.449C231.115 125.144 228.459 124.937 226.42 125.005ZM260.569 198.081C260.863 197.79 261.017 197.679 261.278 197.386C262.532 195.979 263.324 195.142 264.548 193.504C266.194 191.299 267.617 189.213 268.983 186.566C274.889 175.119 275.86 161.204 271.049 149.057C268.773 143.311 266.403 139.338 262.452 134.821C261.798 134.074 261.001 133.35 260.31 132.633C257.184 129.39 253.737 127.003 249.682 124.7C244.378 121.687 238.824 120.166 232.806 119.328C232.61 119.3 232.395 119.265 232.237 119.145L234.054 117.348C235.725 117.309 239.886 118.41 241.474 118.884C247.425 120.662 254.155 124.112 258.7 128.214C259.455 128.895 260.353 129.567 261.088 130.268C262.307 131.432 263.221 132.452 264.334 133.667C267.926 137.59 271.435 143.662 273.362 148.779C276.863 158.082 277.384 169.092 274.403 179.009C272.115 186.619 268.999 191.746 264.164 197.427C262.855 198.964 260.158 201.592 258.586 202.83C257.763 203.479 256.96 204.145 256.071 204.754C255.169 205.371 254.346 205.965 253.428 206.55C248.831 209.481 243.668 211.742 237.821 212.979C226.905 215.289 216.717 213.992 207.403 210.175C201.892 207.916 197.971 205.116 193.878 201.602L191.572 199.468C191.172 199.015 190.948 198.802 190.479 198.348C190.156 198.035 189.776 197.487 189.469 197.139C186.516 193.79 182.79 188.004 181.077 183.605C180.236 181.445 179.512 179.359 178.893 176.953C178.607 175.839 178.274 174.463 178.115 173.301C178.05 172.819 178.075 172.86 178.36 172.591L179.96 170.966C180.051 171.089 180.145 171.576 180.226 172.079C180.303 172.557 180.368 173.05 180.408 173.263C181.374 178.484 182.688 182.587 185.265 187.278C186.802 190.077 188.326 192.31 190.196 194.627L192.108 196.737C193.962 198.715 195.426 200.31 197.695 201.937C200.072 203.641 201.641 204.763 204.318 206.217C210.242 209.435 218.145 211.974 225.555 211.974C238.283 211.974 246.54 208.886 255.977 202.059C258.092 200.528 258.914 199.72 260.569 198.081ZM191.264 127.388C179.975 139.061 167.67 150.447 156.073 161.928C154.621 163.366 153.654 162.255 152.109 161.837C147.683 160.638 146.949 160.969 142.521 161.008C141.684 161.016 138.983 161.836 138.213 162.134C136.223 162.904 132.774 164.714 131.359 166.18C129.373 168.237 128.043 169.816 126.679 172.371C125.047 175.429 124.716 180.891 125.719 184.643C126.327 186.919 128.238 184.982 130.024 183.968C131.445 183.161 133.029 182.035 134.471 181.154C136.245 180.027 138.183 178.681 140.264 177.96C143.609 176.802 147.035 178.086 149.114 180.891C150.181 182.332 151.265 183.516 152.083 185.172C152.907 186.842 153.706 188.919 153.555 190.754C153.407 192.554 152.933 194.647 151.41 195.845C150.172 196.818 148.461 197.809 147.046 198.646C145.296 199.68 143.873 200.955 142.102 201.778C141.282 202.158 138.548 204.01 138.454 204.512C138.279 205.458 141.527 207.246 141.878 207.422C143.187 208.078 147.161 208.874 148.614 208.881C151.588 208.895 152.188 208.964 155.142 208.325C156.99 207.904 158.944 207.211 160.504 206.503C162.345 205.668 164.021 204.585 165.748 203.57C166.136 203.342 168.635 200.711 168.91 200.388C170.425 198.612 172.85 194.51 173.293 192.187C173.776 189.646 173.748 186.646 173.105 184.156C171.729 178.824 170.242 179.804 175.18 175.548C175.414 175.346 175.458 175.242 175.646 175.284L176.482 178.83C177.914 184.412 180.423 189.652 183.605 194.316C184.492 195.616 185.441 197.005 186.522 198.142L191.486 203.351C193.371 204.922 195.163 206.474 197.222 207.906C200.681 210.313 204.852 212.407 209.327 213.982C223.882 219.102 240.369 217.534 253.751 209.771C256.565 208.138 260.447 205.269 262.747 202.933C263.47 202.199 264.407 201.492 265.098 200.749L268.227 197.127C270.258 194.581 272.043 191.793 273.544 188.866C277.591 180.976 279.7 172.152 279.173 163.052C278.875 157.897 277.879 152.363 276.173 148.007C275.26 145.677 274.471 143.908 273.41 141.731C272.444 139.748 271.151 137.911 269.979 136.109C268.936 134.505 267.304 132.447 265.944 131.084C265.557 130.697 265.271 130.323 264.891 129.915C261.128 125.884 255.262 121.771 250.392 119.401C246.1 117.311 242.011 115.854 236.821 114.778C237.081 114.414 238.385 113.21 238.839 112.852C239.563 112.282 240.572 111.611 241.717 112.24C243.53 113.235 246.019 113.813 248.089 113.861C249.726 113.899 252.024 113.788 253.635 113.429C254.071 113.332 254.569 113.194 255.099 113.027C257.069 112.407 259.484 111.377 260.808 110.494C262.027 109.681 263.049 108.81 264.124 107.86C264.567 107.468 264.717 107.174 265.088 106.812L267.118 104.303C267.511 103.609 267.883 102.748 268.24 102.02C269.719 99.0251 269.957 95.2393 269.475 91.7852C269.236 90.0738 269.249 89.9371 268.415 88.8617C267.328 88.9638 266.584 89.6522 265.759 90.1651C264.884 90.7089 264.164 91.1237 263.288 91.7369C262.191 92.4169 260.967 92.9906 259.946 93.7393C259.409 94.133 258.932 94.4399 258.299 94.8177C257.304 95.4115 255.86 96.237 254.663 96.6398C252.952 97.2152 252.044 97.443 250.149 96.8355C248.63 96.3485 247.645 95.5332 246.769 94.7597C245.81 93.9137 242.793 90.1489 242.354 88.4117C241.928 86.7267 240.636 85.6284 241.644 81.8114C241.975 80.5614 241.882 80.8132 242.509 79.962C243.864 78.1223 246.507 76.7809 248.751 75.4102C250.138 74.5624 251.374 73.5214 252.816 72.8149C253.462 72.4984 253.847 72.1268 254.457 71.7307C255.44 71.0917 255.103 71.6643 256.071 70.6154C256.987 69.6223 255.743 68.9835 254.89 68.4542C254.302 68.0892 253.799 67.7219 253.253 67.3644C252.902 67.1335 251.731 66.8367 251.214 66.6756C247.124 65.4 247.7 66.0231 244.21 65.6976C242.844 65.5703 243.004 65.8205 241.839 66.0038C240.134 66.2722 239.13 66.4273 237.506 67.0295C234.113 68.2877 232.325 69.3293 229.381 71.0256C228.547 71.5062 225.194 75.1708 224.732 75.8477C223.455 77.7189 222.817 79.1299 222.114 81.2687C221.837 82.1123 221.494 82.4316 221.496 83.3559C221.501 85.0839 221.12 86.7066 221.373 88.4807C221.899 92.1696 222.991 93.5944 223.181 94.7026C223.354 95.7105 222.826 96.0978 222.393 96.547C212.343 106.965 201.586 117.165 191.264 127.388Z" fill="#09060C"/>
<path fill-rule="evenodd" clip-rule="evenodd" d="M174.697 143.534C174.989 143.373 176.398 141.863 176.714 141.56L187.081 131.469C188.484 130.105 189.911 128.787 191.264 127.388L203.566 115.205C203.908 114.864 204.217 114.505 204.578 114.202C205.062 113.795 205.182 113.594 205.667 113.175C205.916 112.96 207.54 111.429 207.694 111.09C207.111 109.656 206.715 107.579 204.464 107.152C202.793 106.835 200.314 108.14 198.948 108.751C195.58 110.259 192.466 111.797 188.759 113.016C181.753 115.32 172.54 117.859 164.347 117.695C158.68 117.582 156.932 116.621 150.776 117.792C145.985 118.704 139.463 121.652 135.192 123.944C132.626 125.322 130.621 126.277 128.15 127.81C127.741 128.064 127.47 128.297 127.1 128.574C126.87 128.748 126.795 128.773 126.588 128.972C125.395 130.115 123.748 132.006 123.763 134.249C127.023 134.261 129.994 132.53 132.465 131.36C135.087 130.118 137.583 128.677 140.199 127.384C145.086 124.97 152.486 121.994 159.106 123.334C159.528 124.083 159.392 125.367 159.154 126.238C155.884 126.614 153.047 126.359 149.77 127.017C143.792 128.218 140.626 131.324 135.851 133.4C135.001 133.769 128.998 136.261 128.751 136.473C130.052 137.339 148.663 139.392 151.96 139.874C157.143 140.631 157.9 141.229 162.414 142.68C166.321 143.936 174.19 143.346 174.697 143.534Z" fill="#E30016"/>
<path fill-rule="evenodd" clip-rule="evenodd" d="M184.589 81.7136C184.511 79.2526 183.678 77.9511 184.155 75.3754C184.962 71.0196 186.705 68.3419 183.78 64.2105C183.286 63.5128 182.769 62.8613 182.254 62.2103C181.862 61.7153 180.925 60.707 180.656 60.2527L182.72 58.1415C183.077 58.3071 184.043 59.3783 184.395 59.7022C184.98 60.2408 185.374 60.7619 185.908 61.411C186.764 62.4511 187.72 63.9439 188.194 65.5627C189.41 69.7124 187.385 72.7627 187.282 76.6554C187.142 81.9724 190.883 85.687 193.898 89.3501L196.79 92.8297C196.807 90.9128 196.061 89.3869 195.468 87.8009C194.884 86.239 194.307 84.528 193.905 82.8349C191.501 72.6958 196.107 69.4732 193.418 59.5088C192.007 54.2794 188.949 48.8162 184.362 45.7323C183.738 45.3126 182.987 44.8993 182.159 44.6004C178.449 43.2615 174.914 45.4108 171.943 46.6328C168.413 48.0849 156.634 52.8424 152.885 53.8583C151.436 54.251 150.209 55.4622 148.951 56.4843C148.705 56.6846 148.219 57.0255 148.064 57.2116C147.906 57.4016 147.576 57.9443 147.43 58.1834C146.961 58.9476 146.524 59.4336 146.003 60.0805C143.77 62.8543 143.497 66.73 145.871 69.5576C146.763 70.6199 146.784 70.5263 147.923 70.1746C149.499 69.688 150.886 68.7156 151.984 67.6738C153.564 66.1752 156.233 62.0635 157.619 60.2228C159.081 58.2818 160.975 56.1381 163.789 56.6154C166.614 57.0945 168.83 59.6309 170.667 61.1275L173.17 63.5636C174.931 65.4078 176.195 66.6965 177.656 68.9423C178.544 70.3075 179.235 71.5136 179.937 73.1968C181.636 77.2698 180.83 81.0172 184.589 81.7136Z" fill="#E30016"/>
<path fill-rule="evenodd" clip-rule="evenodd" d="M167.911 231.222L182.528 231.214L182.495 255.274L167.886 255.281L167.911 231.222ZM163.002 231.191L158.151 231.221L158.12 255.282L163.002 255.282L163.005 260.091L187.387 260.088L187.412 255.31L192.257 255.276L192.292 231.225L187.411 231.216L187.41 226.406L163.018 226.41L163.002 231.191Z" fill="#E30016"/>
<path fill-rule="evenodd" clip-rule="evenodd" d="M55.5946 235.9L55.6083 231.322C55.7878 231.18 55.6721 231.19 56.2418 231.194L60.5074 231.218L60.5092 236.031L65.3672 236.039L65.3254 245.652L50.7816 245.625C50.6694 245.431 50.7366 245.842 50.6757 245.307L50.7022 236.04C51.66 235.715 54.462 236.182 55.5946 235.9ZM40.9172 236.053V260.051L50.5834 260.089C50.8902 259.005 50.4322 251.609 50.7142 250.456C51.4129 250.307 62.3083 250.421 64.4665 250.405C65.2048 250.4 65.1591 250.323 65.3696 250.534L65.369 260.094L75.109 260.088L75.1304 236.028L70.2536 236.03L70.2475 231.22L65.3712 231.218L65.3678 226.418L50.7415 226.41L50.7194 231.168L45.8476 231.226L45.8377 236.031L40.9172 236.053Z" fill="#E30016"/>
<path fill-rule="evenodd" clip-rule="evenodd" d="M294.815 235.9C295.961 236.171 298.811 235.713 299.708 236.046L299.727 250.443C298.841 250.783 295.862 250.287 294.816 250.603L294.802 255.28L285.069 255.274L285.045 231.225L294.779 231.222L294.815 235.9ZM299.553 260.074C299.816 258.977 299.349 256.049 299.708 255.266L304.504 255.241C304.501 254.386 304.402 251.032 304.571 250.456L309.396 250.416L309.4 236.071L305.744 236.071C305.32 236.071 304.898 236.139 304.617 235.969L304.569 231.217L299.686 231.215L299.69 226.41L275.293 226.41L275.283 260.091L299.553 260.074Z" fill="#E30016"/>
<path fill-rule="evenodd" clip-rule="evenodd" d="M250.843 236.015L250.852 231.23C251.367 231.116 255.282 231.111 255.785 231.233L255.781 236.029L260.644 235.993L260.675 245.653L246 245.685C245.87 245.113 245.873 236.79 245.983 236.03L250.843 236.015ZM246.001 231.2L241.187 231.308C241.187 231.731 241.313 235.663 241.081 236.037L236.251 236.031L236.226 260.078L245.887 260.075C246.162 258.549 245.691 251.375 246.006 250.464L260.624 250.434C260.92 251.422 260.461 258.744 260.744 260.078L270.388 260.087L270.403 236.043L265.52 236.03L265.519 231.245L260.638 231.219L260.638 226.442L245.996 226.411L246.001 231.2Z" fill="#E30016"/>
<path fill-rule="evenodd" clip-rule="evenodd" d="M104.482 226.401L104.426 255.312L89.7416 255.277L89.7108 226.407L80.0217 226.411L80.0112 255.273L84.8916 255.278L84.893 260.072L109.293 260.088L109.305 255.282L114.167 255.277L114.188 226.415L104.482 226.401Z" fill="#E30016"/>
<path fill-rule="evenodd" clip-rule="evenodd" d="M210.197 108.578L211.326 107.462L211.414 107.226C212.635 104.081 213.391 100.637 214.06 97.1363C214.749 93.5338 214.731 89.6027 215.95 86.2984C217.131 83.0972 218.693 80.3925 220.37 77.9499C221.278 76.6269 225.103 71.6908 225.132 69.9554C223.489 69.0467 211.661 68.4645 208.904 68.3184C205.46 68.136 200.372 67.5953 197.831 70.2422C197.107 70.9963 196.73 72.149 196.586 73.5432C195.672 82.4362 199.506 86.8735 200.91 95.4384C201.409 98.4768 201.302 100.814 201.347 103.89C202.485 103.896 203.609 103.915 204.747 103.892C205.866 103.87 206.682 104.207 207.29 104.759C208.852 106.175 209.133 107.093 210.197 108.578Z" fill="#E30016"/>
<path fill-rule="evenodd" clip-rule="evenodd" d="M142.032 116.968C141.487 116.488 136.369 113.754 135.48 113.204C133.15 111.762 131.252 110.549 129.436 108.957C128.13 107.811 125.263 104.941 127.112 102.282C128.727 99.9582 131.223 99.9749 133.541 98.4147C136.69 96.2946 134.334 93.4272 133.372 91.474C131.901 88.4896 131.828 86.38 133.208 83.2815C133.708 82.1577 134.496 80.8619 135.177 80.1187C136.796 78.3529 137.33 77.8444 139.069 76.3566C139.487 75.9989 140.144 75.5257 140.5 75.1602C141.009 74.638 141.339 74.3799 141.777 73.9198C142.199 73.476 142.602 72.9206 143.047 72.5774C143.065 71.5531 141.837 68.7208 140.121 68.2256C137.387 67.4367 133.702 71.2278 131.847 72.6375C130.549 73.624 128.368 75.9814 127.247 77.2095C120.763 84.3079 120.409 89.8319 119.977 99.0603C119.877 101.216 119.797 103.652 119.471 105.758C118.426 112.492 115.641 117.355 122.168 121.922C123.09 122.567 125.76 124.068 127.195 124.196C128.229 124.288 129.139 123.641 129.856 123.192C132.177 121.74 140.919 117.951 142.032 116.968Z" fill="#E30016"/>
<path fill-rule="evenodd" clip-rule="evenodd" d="M129.753 104.264C129.959 104.634 130.397 105.201 130.653 105.465C132.101 106.956 132.432 107.15 134.129 108.434C135.765 109.671 137.525 110.767 139.381 111.865C140.957 112.797 143.178 114.102 145.021 114.806C146.581 115.403 146.956 115.464 148.789 115.139C150.705 114.799 150.654 114.604 152.057 114.06C151.764 113.191 150.992 112.249 150.501 111.609C148.329 108.784 145.208 108.453 141.597 108.098L140.889 105.083C139.458 105.233 138.553 105.392 137.178 104.93C137.021 103.91 137.033 103.222 137.336 102.264C138.199 101.812 140.578 101.95 141.708 101.917C143.15 101.874 144.794 101.711 146.169 101.458C150.834 100.6 155.877 97.9524 158.965 94.8605C159.405 94.4197 159.661 94.0769 160.134 93.6121C161.299 92.4654 161.615 91.7392 163.637 89.8873C164.068 90.0785 164.493 90.3563 164.903 90.6132C165.159 90.7733 165.283 90.8529 165.531 90.9962C165.666 91.0742 165.693 91.0794 165.847 91.1842L166.166 91.4611L165.212 92.6154C164.847 93.0103 164.571 93.3701 164.235 93.7528L162.231 95.9754C161.302 97.0691 160.575 97.6732 159.634 98.6187C157.784 100.478 154.545 101.956 151.941 102.84C149.864 103.545 147.551 104.382 145.447 104.968C146.571 105.938 149.297 105.744 151.902 108.324C152.312 108.73 152.728 109.032 153.105 109.539C153.486 110.052 153.767 110.496 154.092 111.07C154.705 112.154 155.2 113.229 155.922 114.172C156.624 114.198 157.487 113.994 158.359 114.025C160.401 114.098 163.952 114.747 165.61 114.311C166.146 111.206 166.061 107.5 166.305 104.266C166.79 97.8273 168.495 92.2519 169.495 85.9365C169.752 84.3074 169.769 82.5936 169.507 80.9704C169.326 79.8501 168.712 77.7323 168.174 76.8923C167.589 77.7287 166.422 80.4784 165.309 82.108C165.007 82.5508 164.797 82.8592 164.465 83.2767C164.132 83.6962 163.829 84.0453 163.514 84.4387L159.582 88.6701C159.237 89.0307 158.895 89.3077 158.558 89.6566L155.431 92.7784C151.235 96.5313 148.625 98.9252 142.128 100.081C140.968 100.287 139.569 100.431 138.367 100.449C136.575 100.476 136.396 100.596 134.993 101.242C133.441 101.956 130.515 103.229 129.753 104.264Z" fill="#E30016"/>
<path fill-rule="evenodd" clip-rule="evenodd" d="M319.217 240.846L324.062 240.846L324.107 245.664L328.982 245.657V260.092L338.723 260.088L338.744 245.681L343.569 245.655L343.634 240.864L348.508 240.844V226.411L338.755 226.41L338.743 240.843L328.984 240.841L328.981 226.409L319.233 226.41L319.217 240.846Z" fill="#E30016"/>
<path fill-rule="evenodd" clip-rule="evenodd" d="M173.582 112.535L173.581 113.312L173.911 113.269C174.948 113.193 176.247 112.916 177.308 112.744C178.501 112.552 179.484 112.393 180.621 112.101C185.439 110.865 190.942 109.063 195.436 106.994C196.169 106.656 197.459 106.032 198.009 105.565C197.872 104.602 196.316 99.4006 195.922 98.3569C194.764 95.2916 192.005 91.4822 189.615 89.3656C189.029 88.8469 188.59 88.3113 187.668 87.685C186.924 87.1796 182.642 84.3714 181.817 84.0701C179.337 89.8782 175.845 97.9524 174.571 104.339C174.139 106.506 173.416 110.255 173.582 112.535Z" fill="#E30016"/>
<path fill-rule="evenodd" clip-rule="evenodd" d="M202.054 260.048L231.327 260.089L231.347 255.282L211.859 255.274L211.822 226.44L202.055 226.412L202.054 260.048Z" fill="#E30016"/>
<path fill-rule="evenodd" clip-rule="evenodd" d="M123.947 231.218L133.677 231.222L133.71 260.075L143.453 260.089L143.477 231.257L153.25 231.218L153.24 226.448L123.962 226.41L123.947 231.218Z" fill="#E30016"/>
<path fill-rule="evenodd" clip-rule="evenodd" d="M226.597 172.462C229.623 171.82 230.377 176.712 227.281 177.1C224.388 177.462 223.178 173.188 226.597 172.462ZM235.593 166.241C238.518 165.582 239.524 170.31 236.408 170.88C233.371 171.436 232.281 166.987 235.593 166.241ZM217.5 165.525C220.536 164.915 221.371 169.644 218.338 170.185C215.354 170.716 214.212 166.186 217.5 165.525ZM226.636 159.721C233.525 158.889 235.472 170.519 227.282 171.18C220.329 171.741 218.204 160.738 226.636 159.721ZM232.527 155.721C233.948 155.515 234.916 156.628 235.029 157.876C235.16 159.323 234.174 160.375 232.852 160.452C229.973 160.62 229.088 156.218 232.527 155.721ZM221.233 155.267C224.12 154.56 225.124 159.328 222.045 159.918C219.355 160.433 217.636 156.148 221.233 155.267ZM225.913 152.361C221.493 152.833 219.099 154.537 216.971 156.725C213.447 160.348 212.475 166.609 215.152 171.532C219.858 180.186 230.921 180.704 236.92 174.182C240.549 170.237 241.388 164.505 238.706 159.322C236.35 154.768 231.082 151.808 225.913 152.361Z" fill="#E30016"/>
<path fill-rule="evenodd" clip-rule="evenodd" d="M157.616 66.5861C160.66 66.7681 162.186 66.7145 164.638 67.9673C166.363 68.8484 167.958 70.6641 169.019 72.0539C176.216 81.4779 171.504 89.4637 170.183 99.0143C169.815 101.669 169.212 107.639 169.086 110.462C169.024 111.844 168.732 113.172 169.406 114.175C170.616 113.697 170.287 111.614 170.473 109.612C170.63 107.914 170.966 106.331 171.289 104.704C172.619 98.0012 173.962 93.6427 176.977 87.6028C178.5 84.5525 179.058 81.8741 178.161 78.1463C176.688 72.026 170.568 64.6673 166.275 61.5536C165.511 60.9998 163.702 59.3686 162.364 59.9979C161.329 60.4846 160.132 61.8989 159.495 62.8735C159.125 63.4386 157.503 65.9148 157.616 66.5861Z" fill="#E30016"/>
<path fill-rule="evenodd" clip-rule="evenodd" d="M154.4 84.9594C154.082 85.1793 152.151 85.9083 151.761 85.9397C150.479 83.4093 151.311 78.7934 154.587 77.0423C157.542 75.463 160.454 76.14 162.351 78.7256C162.534 78.9753 162.77 79.4449 163.028 79.6467C164.563 78.1757 165.68 74.4584 164.047 72.0522C162.593 69.9084 159.72 69.2874 156.419 70.2467C151.43 71.6962 147.882 76.5501 146.952 81.4318C145.865 87.1348 148.321 90.6196 153.569 88.2466C157.063 86.6669 161.706 81.6183 158.94 79.7854C157.637 78.9217 155.889 79.8795 155.276 80.6207C153.871 82.3218 154.696 82.8004 154.4 84.9594Z" fill="#E30016"/>
<path fill-rule="evenodd" clip-rule="evenodd" d="M138.553 97.1924C143.035 97.286 148.136 95.2828 151.035 92.2771C147.418 91.3979 143.932 91.3157 143.508 85.2924C143.349 83.0377 143.508 80.8809 144.2 78.9079C144.805 77.183 146.35 74.3977 146.485 73.8667C145.765 74.0844 144.549 75.512 144.026 76.0373L141.608 78.2555C140.735 79.1787 139.263 80.3205 138.086 81.6866C135.894 84.2302 134.782 86.5086 136.288 90.1052C137.599 93.2365 138.099 92.4518 138.553 97.1924Z" fill="#E30016"/>
<path fill-rule="evenodd" clip-rule="evenodd" d="M191.78 282.642L194.511 282.634L194.503 277.387L195.818 277.37L195.825 279.986L197.184 279.992L197.196 277.371L198.496 277.368L198.499 282.57C199.13 282.743 200.502 282.617 201.245 282.644L201.193 273.386L198.489 273.399L198.499 274.711L197.159 274.719L197.159 276.022L195.854 276.005L195.851 274.71L194.516 274.703L194.509 273.386L191.802 273.388L191.78 282.642Z" fill="#09060C"/>
<path fill-rule="evenodd" clip-rule="evenodd" d="M150.288 282.645L151.695 282.632L151.69 281.344L153.032 281.293L153.037 280.009L154.334 280.001L154.34 281.272L155.68 281.33L155.683 282.644L157.089 282.63L157.032 281.312L158.385 281.314L158.379 273.387L155.712 273.394C155.76 274.189 155.815 278.092 155.667 278.672L154.704 278.683C154.186 278.677 154.567 278.706 154.396 278.559L154.377 273.421L152.997 273.394L152.983 278.565C152.814 278.703 153.042 278.636 152.677 278.685C152.669 278.686 152.398 278.685 152.371 278.685C152.144 278.684 151.941 278.679 151.715 278.659C151.558 278.11 151.62 274.189 151.665 273.392L148.987 273.388L148.997 281.319L150.33 281.316L150.288 282.645Z" fill="#09060C"/>
<path fill-rule="evenodd" clip-rule="evenodd" d="M344.398 278.689L348.377 278.7L348.374 281.309L344.39 281.307L344.398 278.689ZM344.407 274.716L348.377 274.722L348.373 277.334L344.391 277.325L344.407 274.716ZM351.117 281.281V278.716L351.061 278.713L349.743 278.667C349.619 278.273 349.621 277.753 349.743 277.334L351.074 277.313L351.118 277.306V274.742L349.741 274.663V273.388L341.683 273.396L341.684 282.633L349.74 282.64L349.746 281.333L351.117 281.281Z" fill="#09060C"/>
<path fill-rule="evenodd" clip-rule="evenodd" d="M234.554 282.585L237.333 282.638L237.327 277.372L238.651 277.368L238.662 278.682L239.97 278.692L239.987 279.99L241.309 280.009L241.318 282.591L244.08 282.627C243.941 281.946 244.001 274.602 244.032 273.387L241.307 273.395L241.317 277.328L240.015 277.314L240.003 276.015L238.673 276.011L238.665 274.704L237.332 274.711L237.328 273.386L234.62 273.398C234.651 274.668 234.754 281.959 234.554 282.585Z" fill="#09060C"/>
<path fill-rule="evenodd" clip-rule="evenodd" d="M44.6584 276.054L45.9885 276.04L45.9877 274.728L47.2909 274.721L47.302 276.046L48.5954 276.046L48.6395 278.653L44.6527 278.654L44.6584 276.054ZM44.6133 274.712L43.2697 274.719L43.2746 276.02L41.95 276.023L41.9424 282.628L44.6558 282.628L44.6497 280.007L48.6297 280.003L48.6344 282.635L51.4075 282.626C51.1448 281.657 51.3934 277.423 51.3289 276.051L50.0018 275.998L49.9995 274.705L48.6574 274.702L48.6534 273.382C47.7553 273.397 45.3087 273.275 44.6093 273.446L44.6133 274.712Z" fill="#09060C"/>
<path fill-rule="evenodd" clip-rule="evenodd" d="M173.11 274.716L177.09 274.765L177.083 281.304L173.1 281.281L173.11 274.716ZM170.406 281.313L171.75 281.322L171.748 282.634L178.455 282.632L178.452 281.313L179.785 281.312L179.779 274.713L178.458 274.698L178.455 273.388L171.75 273.382L171.75 274.71L170.403 274.704L170.406 281.313Z" fill="#09060C"/>
<path fill-rule="evenodd" clip-rule="evenodd" d="M108.892 274.714L112.87 274.739L112.863 281.307L108.878 281.307L108.892 274.714ZM107.511 274.711L106.181 274.707L106.184 281.316L107.509 281.311L107.512 282.618L114.219 282.634L114.22 281.332L115.561 281.312L115.566 274.704L114.227 274.703L114.219 273.384L107.51 273.389L107.511 274.711Z" fill="#09060C"/>
<path fill-rule="evenodd" clip-rule="evenodd" d="M218.582 275.915C219.101 276.026 219.471 275.88 219.925 276.064C219.968 276.421 220.042 278.288 219.853 278.638L215.908 278.652L215.952 276.047L217.262 276.049L217.277 274.729L218.562 274.722L218.582 275.915ZM215.912 280.003L219.909 280.001L219.902 282.624L222.612 282.642L222.606 276.019L221.281 276.017L221.285 274.717L219.951 274.702L219.961 273.406L215.909 273.384L215.903 274.706L214.563 274.706L214.556 276.001L213.218 276.059L213.21 282.606L215.912 282.638V280.003Z" fill="#09060C"/>
<path fill-rule="evenodd" clip-rule="evenodd" d="M320.269 281.309L321.603 281.317L321.596 282.595C322.27 282.693 327.845 282.706 328.331 282.57L328.339 281.316L329.671 281.284L329.676 273.393L326.956 273.397L326.959 281.305L322.98 281.301L322.98 273.403L320.271 273.409L320.269 281.309Z" fill="#09060C"/>
<path fill-rule="evenodd" clip-rule="evenodd" d="M63.3535 281.311L64.6861 281.313L64.6823 282.631L71.4068 282.645L71.4026 281.329L72.7488 281.272L72.7572 273.427L70.0497 273.383L70.037 281.307L66.059 281.309L66.0677 273.396L63.3548 273.389L63.3535 281.311Z" fill="#09060C"/>
<path fill-rule="evenodd" clip-rule="evenodd" d="M280.13 274.671L278.796 274.73L278.785 276.022L277.457 276.029L277.447 279.98L278.782 280.011L278.786 281.272L280.129 281.33L280.129 282.644L285.519 282.629L285.514 281.313L286.846 281.308L286.849 280.003L284.135 279.98L284.135 281.301L281.497 281.306L281.482 279.976L280.201 279.976L280.158 276.052L281.49 276.043L281.486 274.72L284.119 274.718L284.138 276.018L286.85 276.044L286.847 274.724L285.52 274.706L285.514 273.433L280.119 273.385L280.13 274.671Z" fill="#09060C"/>
<path fill-rule="evenodd" clip-rule="evenodd" d="M86.0945 274.714L88.771 274.722L88.7654 282.621L91.4666 282.647L91.4753 274.719L94.1562 274.659L94.1639 273.454C93.6206 273.293 87.0922 273.352 86.0975 273.402L86.0993 273.71L86.0945 274.714Z" fill="#09060C"/>
<path fill-rule="evenodd" clip-rule="evenodd" d="M300.195 282.614L300.973 282.633L307.774 282.64L308.262 282.602L308.259 281.312L302.898 281.305L302.906 273.383L300.195 273.435L300.195 282.614Z" fill="#09060C"/>
<path fill-rule="evenodd" clip-rule="evenodd" d="M154.396 278.559C154.567 278.706 154.186 278.677 154.704 278.683L155.667 278.672C155.815 278.092 155.76 274.189 155.712 273.394C155.521 273.776 155.655 278.019 155.616 278.562L154.396 278.559Z" fill="#9F9BA5"/>
<path fill-rule="evenodd" clip-rule="evenodd" d="M152.983 278.565L151.749 278.562L151.747 274.007C151.75 273.585 151.789 273.638 151.665 273.392C151.62 274.189 151.557 278.11 151.715 278.659C151.94 278.679 152.144 278.684 152.371 278.685C152.398 278.685 152.669 278.686 152.677 278.685C153.042 278.636 152.814 278.703 152.983 278.565Z" fill="#A6A2A9"/>
<path fill-rule="evenodd" clip-rule="evenodd" d="M219.853 278.638C220.042 278.288 219.968 276.421 219.925 276.064C219.471 275.88 219.101 276.026 218.582 275.915C218.684 276.171 218.763 276.081 219.155 276.08C219.396 276.079 219.614 276.073 219.855 276.083L219.853 278.638Z" fill="#7E7988"/>
<path fill-rule="evenodd" clip-rule="evenodd" d="M183.745 175.583L183.682 175.314C184.093 175.302 184.666 175.308 184.97 175.18L183.632 175.243L183.745 175.583Z" fill="#86828F"/>
<path fill-rule="evenodd" clip-rule="evenodd" d="M173.911 113.269L173.581 113.312L173.582 112.535L173.468 113.353C173.838 113.401 173.637 113.447 173.911 113.269Z" fill="#F6AF95"/>
</g>
</g>
<defs>
<clipPath id="clip0_1_2">
<rect width="400" height="295" fill="white"/>
</clipPath>
<clipPath id="clip1_1_2">
<rect width="412" height="406" fill="white" transform="translate(-6 -3)"/>
</clipPath>
</defs>
</svg>
