<svg width="150" height="150" viewBox="0 0 150 150" fill="none" xmlns="http://www.w3.org/2000/svg">
<g clip-path="url(#clip0_4_171)">
<path fill-rule="evenodd" clip-rule="evenodd" d="M149.7 75C149.7 116.256 116.256 149.7 75 149.7C33.7443 149.7 0.299988 116.256 0.299988 75C0.299988 33.7443 33.7443 0.300003 75 0.300003C116.256 0.300003 149.7 33.7443 149.7 75ZM74.6938 95.5287C75.6089 94.6396 76.5266 93.748 77.4469 92.8516C77.5562 92.9285 77.6618 93.0016 77.7645 93.0727C77.9347 93.1905 78.0969 93.3028 78.2553 93.4177C79.9441 94.6652 81.6327 95.9134 83.3213 97.1616C86.9559 99.8481 90.5907 102.535 94.2278 105.215C97.4084 107.561 100.122 106.552 100.946 102.687C104.41 86.41 107.865 70.1309 111.311 53.8499C111.413 53.368 111.521 52.8865 111.628 52.4048C111.982 50.8257 112.336 49.245 112.489 47.6449C112.803 44.3796 110.483 42.7362 107.463 43.9032C100.07 46.7574 92.6772 49.6104 85.2846 52.4634C76.7988 55.7383 68.3132 59.0131 59.8276 62.2894C58.4788 62.8094 57.1295 63.3284 55.7801 63.8474C50.8706 65.7357 45.9607 67.6243 41.0713 69.5618C39.9829 70.0076 38.9786 70.6358 38.1015 71.4194C37.1653 72.2494 37.318 73.4031 38.3622 74.1102C39.0378 74.5701 39.8263 74.8954 40.6081 75.1444C45.6891 76.7621 50.7793 78.3507 55.8785 79.9103C56.5392 80.1145 56.8479 80.4315 57.0571 81.0839C58.3028 84.9747 59.563 88.8578 60.8231 92.7408C61.7409 95.5689 62.6587 98.397 63.5709 101.228C63.8681 102.146 64.4092 102.571 65.377 102.622C66.7946 102.697 67.9052 102.159 68.8929 101.187C70.8144 99.2977 72.7482 97.4189 74.6938 95.5287ZM65.6692 97.747L65.4899 97.7951L62.1682 87.6193C61.9476 86.9428 61.729 86.266 61.5105 85.5893C60.9055 83.7156 60.3009 81.8432 59.6533 79.9833C59.396 79.2413 59.5222 78.8811 60.1978 78.4561C68.2088 73.4239 76.2116 68.3791 84.2147 63.334C88.1551 60.8501 92.0956 58.366 96.0372 55.8834C96.5983 55.5299 97.1942 55.1647 97.8234 55.002C98.1389 54.9203 98.4932 54.9899 98.8481 55.0596C99.0123 55.0918 99.1766 55.1241 99.3373 55.1414C99.2652 55.273 99.2021 55.4141 99.1389 55.555C99.0013 55.8624 98.8638 56.1693 98.6351 56.3765C93.9281 60.6546 89.2047 64.9138 84.4803 69.1738C83.7914 69.795 83.1025 70.4163 82.4136 71.0376C81.1635 72.1646 79.9142 73.2922 78.6648 74.4198C75.0263 77.7037 71.3877 80.9878 67.7325 84.2562C67.1134 84.8106 66.8312 85.3949 66.7648 86.2183C66.5373 89.048 66.2719 91.8728 66.0066 94.6972C65.9253 95.5627 65.844 96.4282 65.7638 97.2938C65.7546 97.3982 65.7288 97.5018 65.7028 97.6062C65.6911 97.6529 65.6794 97.6998 65.6692 97.747Z" fill="#E42024"/>
</g>
<defs>
<clipPath id="clip0_4_171">
<rect width="150" height="150" fill="white"/>
</clipPath>
</defs>
</svg>
