<svg width="150" height="150" viewBox="0 0 150 150" fill="none" xmlns="http://www.w3.org/2000/svg">
<g clip-path="url(#clip0_4_2)">
<path d="M75 0.220795C33.1898 0.220795 -0.702393 33.6997 -0.702393 75C-0.702393 116.3 33.1898 149.779 75 149.779C116.81 149.779 150.702 116.3 150.702 75C150.702 33.6997 116.81 0.220795 75 0.220795ZM115.685 103.378C112.454 105.373 99.3261 105.968 96.1478 103.687C94.4045 102.436 92.8104 100.871 91.2967 99.381C90.2372 98.3393 89.0351 97.8339 88.1249 96.7031C87.382 95.7781 86.872 94.6862 86.0897 93.7726C84.7695 92.24 82.7375 90.9359 81.1303 92.8087C78.7097 95.6258 81.5108 101.158 78.2833 103.263C77.2009 103.969 76.1086 104.173 74.7556 104.073L71.7594 104.207C69.9996 104.241 67.2116 104.257 65.2092 103.901C62.9755 103.502 61.1305 102.297 59.11 101.412C55.2757 99.7325 51.6234 97.4435 48.8436 94.2731C41.2783 85.6385 31.1169 73.7639 27.1694 62.9083C26.3576 60.6776 24.2125 56.2598 26.2461 54.3466C29.0111 52.3621 42.5821 51.8032 44.6994 54.8715C45.5587 56.1189 46.1016 57.943 46.71 59.3573C47.4677 61.1198 47.8777 62.7803 49.0618 64.3404C50.1097 65.7239 50.8822 67.1155 51.6923 68.6318C52.6025 70.3344 53.4619 71.9674 54.5689 73.5339C55.32 74.5999 57.306 76.7204 58.5606 76.8776C61.6242 77.2648 61.4339 69.9116 61.206 68.1166C60.9959 66.3514 60.9235 64.5728 60.9895 62.7965C61.0387 61.2997 61.1748 59.1904 60.2777 57.9689C58.8148 55.9763 55.5562 57.4667 55.302 54.7889C55.8399 54.0291 55.7267 53.3552 59.32 52.1855C62.1506 51.267 63.9792 51.2962 65.8455 51.4436C69.6503 51.7449 73.6847 50.7275 77.3583 51.9458C80.8679 53.1138 80.3251 58.0402 80.207 60.9919C80.0479 65.0208 80.2185 68.9542 80.207 73.0447C80.2021 74.906 80.1266 76.7188 82.4259 76.5665C84.5809 76.4256 84.8006 74.6339 85.8289 73.1564C87.259 71.0958 88.5726 69.006 90.029 66.9535C91.992 64.1784 92.5857 61.0599 94.434 58.2168C95.0949 57.2011 95.664 55.0367 96.6824 54.2332C97.4532 53.6225 98.9178 53.9416 99.8509 53.9416H102.07C103.767 53.9416 105.499 53.9287 107.244 53.9886C109.757 54.0745 112.571 53.5042 115.062 53.8525C125.812 55.351 101.55 78.0521 102.813 82.1053C103.685 84.9047 109.22 88.0329 111.218 90.3252C113.87 93.3789 122.034 99.449 115.685 103.378Z" fill="#E42024"/>
</g>
<defs>
<clipPath id="clip0_4_2">
<rect width="150" height="150" fill="white"/>
</clipPath>
</defs>
</svg>
