<svg width="120" height="120" viewBox="0 0 120 120" fill="none" xmlns="http://www.w3.org/2000/svg">
<g clip-path="url(#clip0_2006_2)">
<path fill-rule="evenodd" clip-rule="evenodd" d="M120 60C120 93.1371 93.1371 120 60 120C26.8629 120 0 93.1371 0 60C0 26.8629 26.8629 0 60 0C93.1371 0 120 26.8629 120 60ZM51.7375 47.8129L51.74 70.4499L73.3525 59.1704L51.7375 47.8129ZM96.02 35.8939C98.4175 38.3387 99.2 43.8903 99.2 43.8903C99.2 43.8903 100 50.4112 100 56.9296V63.0427C100 69.5636 99.2 76.082 99.2 76.082C99.2 76.082 98.4175 81.6336 96.02 84.0784C93.279 86.9704 90.2396 87.2692 88.5217 87.4381C88.3328 87.4567 88.1598 87.4737 88.005 87.4924C76.81 88.3082 60 88.3333 60 88.3333C60 88.3333 39.2 88.142 32.8 87.5226C32.4968 87.4656 32.1292 87.4212 31.7129 87.3709C29.6857 87.126 26.5038 86.7416 23.9775 84.0784C21.58 81.6336 20.8 76.082 20.8 76.082C20.8 76.082 20 69.5636 20 63.0427V56.9296C20 50.4112 20.8 43.8903 20.8 43.8903C20.8 43.8903 21.58 38.3387 23.9775 35.8939C26.7247 32.9978 29.7669 32.7023 31.4849 32.5353C31.6712 32.5172 31.8419 32.5006 31.995 32.4824C43.19 31.6667 59.9825 31.6667 59.9825 31.6667H60.0175C60.0175 31.6667 76.81 31.6667 88.005 32.4824C88.1581 32.5007 88.3289 32.5173 88.5153 32.5354C90.2321 32.7024 93.2755 32.9983 96.02 35.8939Z" fill="#E42024"/>
</g>
</svg>
